# xmcd CD database file
#
# Track frame offsets:
#	150
#	15906
#	29436
#	39216
#	52476
#	65290
#	80603
#	96663
#	108159
#	119112
#	132667
#	143867
#	154878
#	167563
#	178821
#	192026
#	204212
#	214982
#
# Disc length: 3055 seconds
#
# Revision: 1
# Processed by: cddbd v1.5.1PL2 Copyright (c) Steve Scherf et al.
# Submitted via: CDex 1.51
#
DISCID=080bed12
DTITLE=Γιάννης Πουλόπουλος - Τα Τραγούδια μου CD 2
DYEAR=1998
DGENRE=Ελαφρά Λαϊκά
TTITLE0=Θα πιώ απόψε το φεγγάρι
TTITLE1=Μη μου θυμώνεις μάτια μου
TTITLE2=Γέλαγε η Μαρία
TTITLE3=Γύφτισσα μέρα
TTITLE4=Με μιά βροχή
TTITLE5=Αδειο σπίτι
TTITLE6=Μάνα, Γυναίκα, Παναγιά
TTITLE7=Η άμαξα μεσ' τη βροχή
TTITLE8=Δε σου γύρεψα μαχαίρι
TTITLE9=Ηρθαν τόσα βάσανα
TTITLE10=Της παράγγειλα να ράψει
TTITLE11=Ρώτησέ με Μαργαρίτα
TTITLE12=Της Μπαρμπαριάς τα κύματα
TTITLE13=Στη Γειτονιά
TTITLE14=Μέσα στα παλιά βαγόνια
TTITLE15=Οταν μιλάς για χωρισμό
TTITLE16=Καράβια αλήτες
TTITLE17=Χωρίς φιλί κι αντίο
EXTD=YEAR: 1998
EXTT0=
EXTT1=
EXTT2=
EXTT3=
EXTT4=
EXTT5=
EXTT6=
EXTT7=
EXTT8=
EXTT9=
EXTT10=
EXTT11=
EXTT12=
EXTT13=
EXTT14=
EXTT15=
EXTT16=
EXTT17=
PLAYORDER=
